<?xml version="1.0" encoding="UTF-8"?>
<svg width="1585px" height="843px" viewBox="0 0 1585 843" version="1.1" xmlns="http://www.w3.org/2000/svg" xmlns:xlink="http://www.w3.org/1999/xlink">
    <!-- Generator: Sketch 59.1 (86144) - https://sketch.com -->
    <title>bookshelf-svgrepo-com</title>
    <desc>Created with Sketch.</desc>
    <g id="Components" stroke="none" stroke-width="1" fill="none" fill-rule="evenodd">
        <g id="bookshelf-svgrepo-com" fill-rule="nonzero">
            <path d="M911.857143,121 L826.142857,121 C816.675714,121 809,128.707696 809,138.214286 L809,603 L929,603 L929,138.214286 C929,128.707696 921.324286,121 911.857143,121 Z" id="Path" fill="#E6DFF2"></path>
            <path d="M869,121 L826.142857,121 C816.675714,121 809,128.707696 809,138.214286 L809,603 L869,603 L869,121 Z" id="Path" fill="#C1B3D9"></path>
            <path d="M361.808826,52 L258.191174,52 C248.697348,52 241,59.6957031 241,69.1875 L241,602 L379,602 L379,69.1875 C379,59.6957031 371.302652,52 361.808826,52 Z" id="Path" fill="#F1EDE9"></path>
            <path d="M361.867252,52 L310,52 L310,602 L379,602 L379,69.1875 C379,59.6957031 371.328812,52 361.867252,52 Z" id="Path" fill="#C0DEDB"></path>
            <path d="M171.85805,843 C165.479101,843 159.470848,839.42075 156.524575,833.511125 L70.8148239,661.844458 C66.5786194,653.361979 70.011295,643.05125 78.4815611,638.811083 C86.9346854,634.585938 97.2477112,638.006396 101.481773,646.488875 L154.716099,753.117479 L154.716099,654.166667 C154.716099,644.686375 162.382837,637 171.85805,637 C181.333263,637 189,644.686375 189,654.166667 L189,825.833333 C189,833.796521 183.52529,840.712542 175.792127,842.538646 C174.487196,842.849792 173.162981,843 171.85805,843 Z" id="Path" fill="#868491"></path>
            <path d="M1419.14195,843 C1417.83702,843 1416.5128,842.849792 1415.20787,842.538646 C1407.47471,840.710396 1402,833.796521 1402,825.833333 L1402,654.166667 C1402,644.686375 1409.66674,637 1419.14195,637 C1428.61716,637 1436.2839,644.686375 1436.2839,654.166667 L1436.2839,753.117479 L1489.51823,646.488875 C1493.76943,638.006396 1504.04817,634.585937 1512.51844,638.811083 C1520.98871,643.053396 1524.42138,653.361979 1520.18518,661.844458 L1434.47542,833.511125 C1431.52915,839.42075 1425.51876,843 1419.14195,843 Z" id="Path" fill="#868491"></path>
            <path d="M533.75,52 L499.25,52 C489.723687,52 482,59.6957031 482,69.1875 L482,602 L551,602 L551,69.1875 C551,59.6957031 543.276313,52 533.75,52 Z" id="Path" fill="#000000"></path>
            <path d="M791.75,52 L757.25,52 C747.723687,52 740,59.6957031 740,69.1875 L740,602 L809,602 L809,69.1875 C809,59.6957031 801.276313,52 791.75,52 Z" id="Path" fill="#D8E9F1"></path>
            <path d="M223.75,104 L189.25,104 C179.723687,104 172,111.704388 172,121.206897 L172,601.117996 C172,602.156862 172.84525,603 173.886719,603 L241,603 L241,121.206897 C241,111.704388 233.276313,104 223.75,104 Z" id="Path" fill="#C0DEDB"></path>
            <path d="M154.8,155 L103.2,155 C93.7013,155 86,162.697856 86,172.192308 L86,602 L172,602 L172,172.192308 C172,162.697856 164.2987,155 154.8,155 Z" id="Path" fill="#E6DFF2"></path>
            <path d="M1034.94796,82.5472719 L983.347963,82.5472719 C973.849263,82.5472719 966.147963,90.2485719 966.147963,99.7472719 L966.147963,598.547272 L1052.14796,598.547272 L1052.14796,99.7472719 C1052.14796,90.2485719 1044.44666,82.5472719 1034.94796,82.5472719 Z" id="Path" fill="#5D647F" transform="translate(1009.147963, 340.547272) rotate(-10.000000) translate(-1009.147963, -340.547272) "></path>
            <path d="M721.857143,0 L636.142857,0 C626.675714,0 619,7.7013 619,17.2 L619,602 L739,602 L739,17.2 C739,7.7013 731.324286,0 721.857143,0 Z" id="Path" fill="#C0DEDB"></path>
            <path d="M601.75,121 L567.25,121 C557.723687,121 550,128.707696 550,138.214286 L550,603 L619,603 L619,138.214286 C619,128.707696 611.276313,121 601.75,121 Z" id="Path" fill="#E6DFF2"></path>
            <path d="M464.833333,86 L396.166667,86 C386.686375,86 379,93.7013 379,103.2 L379,602 L482,602 L482,103.2 C482,93.7013 474.313625,86 464.833333,86 Z" id="Path" fill="#F1EDE9"></path>
            <path d="M1560.25554,671 L24.7444569,671 C11.0793306,671 0,663.276313 0,653.75 L0,619.25 C0,609.723687 11.0793306,602 24.7444569,602 L1560.25554,602 C1573.92067,602 1585,609.723687 1585,619.25 L1585,653.75 C1585,663.276313 1573.92067,671 1560.25554,671 Z" id="Path" fill="#E6BE8A"></path>
            <rect id="Rectangle" fill="#5D647F" x="241" y="104" width="69" height="34"></rect>
            <rect id="Rectangle" fill="#868491" x="310" y="104" width="69" height="34"></rect>
            <rect id="Rectangle" fill="#5D647F" x="241" y="517" width="69" height="34"></rect>
            <rect id="Rectangle" fill="#868491" x="310" y="517" width="69" height="34"></rect>
            <rect id="Rectangle" fill="#000000" x="585" y="173" width="34" height="34"></rect>
            <rect id="Rectangle" fill="#000000" x="585" y="500" width="34" height="34"></rect>
            <rect id="Rectangle" fill="#C0DEDB" x="809" y="173" width="60" height="34"></rect>
            <rect id="Rectangle" fill="#C0DEDB" x="809" y="500" width="60" height="34"></rect>
            <rect id="Rectangle" fill="#C0DEDB" x="869" y="173" width="60" height="34"></rect>
            <rect id="Rectangle" fill="#C0DEDB" x="869" y="500" width="60" height="34"></rect>
            <path d="M378,103.2 L378,602 L430,602 L430,86 L395.333333,86 C385.761,86 378,93.7013 378,103.2 Z" id="Path" fill="#C9C3BC"></path>
            <path d="M172,603 L206,603 L206,104 L189,104 C179.61175,104 172,111.704388 172,121.206897 L172,603 Z" id="Path" fill="#F1EDE9"></path>
            <path d="M86,602 L129,602 L129,155 L101.0457,155 C92.73595,155 86,161.732938 86,170.038971 L86,602 Z" id="Path" fill="#E6DFF2"></path>
            <path d="M482,602 L516,602 L516,52 L499,52 C489.61175,52 482,59.6957031 482,69.1875 L482,602 Z" id="Path" fill="#646262"></path>
            <path d="M551,603 L585,603 L585,121 L568,121 C558.61175,121 551,128.707696 551,138.214286 L551,603 Z" id="Path" fill="#E6DFF2"></path>
            <rect id="Rectangle" fill="#000000" x="551" y="173" width="34" height="34"></rect>
            <rect id="Rectangle" fill="#000000" x="551" y="500" width="34" height="34"></rect>
            <path d="M619,602 L679,602 L679,0 L636.142857,0 C626.675714,0 619,7.7013 619,17.2 L619,602 Z" id="Path" fill="#E1F1F0"></path>
            <path d="M774,52 L757,52 C747.61175,52 740,59.6957031 740,69.1875 L740,602 L774,602 L774,52 Z" id="Path" fill="#000000"></path>
            <path d="M1010.14796,87.5472719 L984.160822,87.5472719 C974.765471,87.5472719 967.147963,95.2485719 967.147963,104.747272 L967.147963,603.547272 L1010.14796,603.547272 L1010.14796,87.5472719 Z" id="Path" fill="#000000" transform="translate(988.647963, 345.547272) rotate(-10.000000) translate(-988.647963, -345.547272) "></path>
            <path d="M0,637 L0,654 C0,663.38825 11.0793306,671 24.7444569,671 L1560.25554,671 C1573.92067,671 1585,663.38825 1585,654 L1585,637 L0,637 Z" id="Path" fill="#C9A07C"></path>
        </g>
    </g>
</svg>