<?xml version="1.0" encoding="UTF-8"?>
<svg width="83px" height="86px" viewBox="0 0 83 86" version="1.1" xmlns="http://www.w3.org/2000/svg" xmlns:xlink="http://www.w3.org/1999/xlink">
    <!-- Generator: Sketch 59.1 (86144) - https://sketch.com -->
    <title>icons8-google</title>
    <desc>Created with Sketch.</desc>
    <g id="Final-UI" stroke="none" stroke-width="1" fill="none" fill-rule="evenodd">
        <g id="رجیستر" transform="translate(-60.000000, -41.000000)" fill-rule="nonzero">
            <g id="icons8-google" transform="translate(60.000000, 41.000000)">
                <path d="M82.192825,34.57845 L78.85,34.57845 L78.85,34.4 L41.5,34.4 L41.5,51.6 L64.953725,51.6 C61.53205,61.61255 52.337725,68.8 41.5,68.8 C27.748975,68.8 16.6,57.24805 16.6,43 C16.6,28.75195 27.748975,17.2 41.5,17.2 C47.847425,17.2 53.62215,19.6811 58.019075,23.73385 L69.75735,11.5713 C62.34545,4.41395 52.4311,0 41.5,0 C18.581625,0 0,19.25325 0,43 C0,66.74675 18.581625,86 41.5,86 C64.418375,86 83,66.74675 83,43 C83,40.11685 82.71365,37.3025 82.192825,34.57845 Z" id="Path" fill="#FBC02D"></path>
                <path d="M5,23.4361057 L18.640617,34 C22.3315342,24.3502257 31.2702798,17.5370729 41.7306464,17.5370729 C48.0807678,17.5370729 53.8579458,20.0667956 58.2567386,24.1989684 L70,11.7980658 C62.5849515,4.50045132 52.6663899,0 41.7306464,0 C25.7837251,0 11.9542029,9.50728562 5,23.4361057 Z" id="Path" fill="#E53935"></path>
                <path d="M40.0771128,86 C50.8347857,86 60.6095662,81.7846482 68,74.9296375 L55.1099507,63.761194 C50.9284936,67.0042644 45.7308259,68.9424307 40.0771128,68.9424307 C29.2444736,68.9424307 20.0465176,61.869936 16.5814058,52 L3,62.7142857 C9.89274044,76.5245203 23.890626,86 40.0771128,86 Z" id="Path" fill="#4CAF50"></path>
                <path d="M82.1831,35.1763309 L82.1495,35 L78.8,35 L41,35 L41,51.995747 L64.7363,51.995747 C63.0731,56.7481827 60.0512,60.8462822 56.1536,63.8311603 C56.1557,63.8290358 56.1578,63.8290358 56.1599,63.8269114 L69.1589,74.9548767 C68.2391,75.8004151 83,64.7425572 83,43.4978735 C83,40.6489614 82.7102,37.8680323 82.1831,35.1763309 Z" id="Path" fill="#1565C0"></path>
            </g>
        </g>
    </g>
</svg>