<?xml version="1.0" encoding="UTF-8"?>
<svg width="444px" height="275px" viewBox="0 0 444 275" version="1.1" xmlns="http://www.w3.org/2000/svg" xmlns:xlink="http://www.w3.org/1999/xlink">
    <!-- Generator: Sketch 59.1 (86144) - https://sketch.com -->
    <title>ICON</title>
    <desc>Created with Sketch.</desc>
    <g id="Final-UI" stroke="none" stroke-width="1" fill="none" fill-rule="evenodd">
        <g id="ICON" transform="translate(3.000000, 2.000000)" stroke="#000000" stroke-width="2.0716">
            <g id="book" transform="translate(145.000000, 0.000000)">
                <polygon id="path6726" fill="#FFFFFF" fill-rule="nonzero" points="0.0045080641 219.478977 0.0045080641 223.944084 2.75535667 229.439642 10.3200741 240.087229 20.291726 248.674097 29.5760143 254.856716 35.0777115 256.917527 53.3019092 259.321822 210.786714 271 294 47.0552987 285.40354 47.3987827 281.277267 41.2161634 276.463398 33.6598867 274.744106 22.6687699 273.71255 15.4560236 277.494955 0.343470079 275.087974 0 126.54029 14.7694873 123.101753 14.7694873 120.694772 13.3955977 3.0947163 214.328403 0 219.480431"></polygon>
                <path d="M6.38460293,227.625449 L12.9195581,237.589682 L22.206,245.492429 L30.116466,250.646374 L35.2754455,253.395176 L52.4723534,254.082353 L129.271184,259.254761 L205.521766,264.390244 L287.378378,48.953657 L283.939043,47.2356443 L274.996595,34.1789518 L272.933004,13.2195122 L188.668434,229.343416 L179.381992,230.374205 C189.414753,230.865525 173.269116,230.074847 130.94508,228.002171 C88.6210446,225.929494 46.2970088,223.856818 3.97297297,221.784141 L6.38460293,227.625449 Z" id="path6728" fill="#E6DFF2" fill-rule="nonzero"></path>
                <line x1="7.94594595" y1="220.765854" x2="125.810811" y2="14.5414634" id="path6730"></line>
                <polyline id="path6732" points="180.790309 231.341463 180.108108 239.603659 182.837005 248.554486 194.434931 258.882114 202.621622 264.390244"></polyline>
            </g>
            <g id="book" transform="translate(97.000000, 1.000000)">
                <polygon id="path6726" fill="#000000" fill-rule="nonzero" points="0.004477397 218.669092 0.004477397 223.117722 2.73661274 228.593002 10.2498695 239.201298 20.1536871 247.75648 29.374817 253.916285 34.8390877 255.969492 52.9393112 258.364915 209.35279 270 292 46.8816629 283.462019 47.2238795 279.363816 41.0640743 274.582695 33.5356805 272.875099 22.5851213 271.85056 15.3989903 275.607234 0.342202662 273.216627 0 125.679472 14.7149873 122.264326 14.7149873 119.873719 13.3461674 3.0736638 213.537523 0 218.67054"></polygon>
                <polygon id="path6728" fill="#FFFFFF" fill-rule="nonzero" points="5.2891301 220.949942 7.67988702 226.767397 14.1692888 236.691019 23.3909974 244.561558 31.2463218 249.694498 36.3693394 252.432097 53.4463724 253.116473 205.42892 263.382353 286.714932 48.8238007 283.299572 47.1127899 274.419459 34.1093113 272.370252 13.2352941 188.693067 228.478362 179.471359 229.50495 5.28506787 220.949896"></polygon>
                <line x1="7.92760181" y1="219.705882" x2="124.199095" y2="14.5588235" id="path6730"></line>
                <polyline id="path6732" points="180.372934 230.294118 179.692308 238.566176 182.414904 247.52769 193.986056 257.867647 202.153846 263.382353"></polyline>
            </g>
            <g id="book" transform="translate(49.000000, 1.000000)">
                <polygon id="path6726" fill="#F1EDE9" fill-rule="nonzero" points="0.004477397 218.669092 0.004477397 223.117722 2.73661274 228.593002 10.2498695 239.201298 20.1536871 247.75648 29.374817 253.916285 34.8390877 255.969492 52.9393112 258.364915 209.35279 270 292 46.8816629 283.462019 47.2238795 279.363816 41.0640743 274.582695 33.5356805 272.875099 22.5851213 271.85056 15.3989903 275.607234 0.342202662 273.216627 0 125.679472 14.7149873 122.264326 14.7149873 119.873719 13.3461674 3.0736638 213.537523 0 218.67054"></polygon>
                <polygon id="path6728" fill="#FFFFFF" fill-rule="nonzero" points="5.2891301 220.949942 7.67988702 226.767397 14.1692888 236.691019 23.3909974 244.561558 31.2463218 249.694498 36.3693394 252.432097 53.4463724 253.116473 205.42892 263.382353 286.714932 48.8238007 283.299572 47.1127899 274.419459 34.1093113 272.370252 13.2352941 188.693067 228.478362 179.471359 229.50495 5.28506787 220.949896"></polygon>
                <line x1="7.92760181" y1="219.705882" x2="124.199095" y2="14.5588235" id="path6730"></line>
                <polyline id="path6732" points="180.372934 230.294118 179.692308 238.566176 182.414904 247.52769 193.986056 257.867647 202.153846 263.382353"></polyline>
            </g>
            <g id="book" transform="translate(0.000000, 1.000000)">
                <polygon id="path6726" fill="#C0DEDB" fill-rule="nonzero" points="0.004477397 218.669092 0.004477397 223.117722 2.73661274 228.593002 10.2498695 239.201298 20.1536871 247.75648 29.374817 253.916285 34.8390877 255.969492 52.9393112 258.364915 209.35279 270 292 46.8816629 283.462019 47.2238795 279.363816 41.0640743 274.582695 33.5356805 272.875099 22.5851213 271.85056 15.3989903 275.607234 0.342202662 273.216627 0 125.679472 14.7149873 122.264326 14.7149873 119.873719 13.3461674 3.0736638 213.537523 0 218.67054"></polygon>
                <polygon id="path6728" fill="#FFFFFF" fill-rule="nonzero" points="5.2891301 220.949942 7.67988702 226.767397 14.1692888 236.691019 23.3909974 244.561558 31.2463218 249.694498 36.3693394 252.432097 53.4463724 253.116473 205.42892 263.382353 286.714932 48.8238007 283.299572 47.1127899 274.419459 34.1093113 272.370252 13.2352941 188.693067 228.478362 179.471359 229.50495 5.28506787 220.949896"></polygon>
                <line x1="7.92760181" y1="219.705882" x2="124.199095" y2="14.5588235" id="path6730"></line>
                <polyline id="path6732" points="180.372934 230.294118 179.692308 238.566176 182.414904 247.52769 193.986056 257.867647 202.153846 263.382353"></polyline>
            </g>
        </g>
    </g>
</svg>