<?xml version="1.0" encoding="UTF-8"?>
<svg width="1982px" height="808px" viewBox="0 0 1982 808" version="1.1" xmlns="http://www.w3.org/2000/svg" xmlns:xlink="http://www.w3.org/1999/xlink">
    <!-- Generator: Sketch 59.1 (86144) - https://sketch.com -->
    <title>bookshelf-svgrepo-com</title>
    <desc>Created with Sketch.</desc>
    <g id="Components" stroke="none" stroke-width="1" fill="none" fill-rule="evenodd">
        <g id="bookshelf-svgrepo-com" fill-rule="nonzero">
            <rect id="Rectangle" fill="#5D647F" transform="translate(340.000000, 34.500000) rotate(90.000000) translate(-340.000000, -34.500000) " x="305.5" y="29.5" width="69" height="10"></rect>
            <path d="M361.808826,17 L258.191174,17 C248.697348,17 241,24.6957031 241,34.1875 L241,567 L379,567 L379,34.1875 C379,24.6957031 371.302652,17 361.808826,17 Z" id="Path" fill="#F1EDE9"></path>
            <rect id="Rectangle" fill="#A81C20" transform="translate(200.500000, 85.500000) rotate(90.000000) translate(-200.500000, -85.500000) " x="180.5" y="77.5" width="40" height="16"></rect>
            <path d="M361.867252,17 L310,17 L310,567 L379,567 L379,34.1875 C379,24.6957031 371.328812,17 361.867252,17 Z" id="Path" fill="#C0DEDB"></path>
            <path d="M171.85805,808 C165.479101,808 159.470848,804.42075 156.524575,798.511125 L70.8148239,626.844458 C66.5786194,618.361979 70.011295,608.05125 78.4815611,603.811083 C86.9346854,599.585938 97.2477112,603.006396 101.481773,611.488875 L154.716099,718.117479 L154.716099,619.166667 C154.716099,609.686375 162.382837,602 171.85805,602 C181.333263,602 189,609.686375 189,619.166667 L189,790.833333 C189,798.796521 183.52529,805.712542 175.792127,807.538646 C174.487196,807.849792 173.162981,808 171.85805,808 Z" id="Path" fill="#868491"></path>
            <path d="M1785.14195,807 C1783.83702,807 1782.5128,806.849792 1781.20787,806.538646 C1773.47471,804.710396 1768,797.796521 1768,789.833333 L1768,618.166667 C1768,608.686375 1775.66674,601 1785.14195,601 C1794.61716,601 1802.2839,608.686375 1802.2839,618.166667 L1802.2839,717.117479 L1855.51823,610.488875 C1859.76943,602.006396 1870.04817,598.585937 1878.51844,602.811083 C1886.98871,607.053396 1890.42138,617.361979 1886.18518,625.844458 L1800.47542,797.511125 C1797.52915,803.42075 1791.51876,807 1785.14195,807 Z" id="Path" fill="#868491"></path>
            <path d="M808,758 L842,758 L842,276 L825,276 C815.61175,276 808,283.707696 808,293.214286 L808,758 Z" id="Path" fill="#E6DFF2" transform="translate(825.000000, 517.000000) rotate(-270.000000) translate(-825.000000, -517.000000) "></path>
            <path d="M533.75,17 L499.25,17 C489.723687,17 482,24.6957031 482,34.1875 L482,567 L551,567 L551,34.1875 C551,24.6957031 543.276313,17 533.75,17 Z" id="Path" fill="#000000"></path>
            <path d="M223.75,69 L189.25,69 C179.723687,69 172,76.7043879 172,86.2068966 L172,566.117996 C172,567.156862 172.84525,568 173.886719,568 L241,568 L241,86.2068966 C241,76.7043879 233.276313,69 223.75,69 Z" id="Path" fill="#C0DEDB"></path>
            <path d="M154.8,120 L103.2,120 C93.7013,120 86,127.697856 86,137.192308 L86,567 L172,567 L172,137.192308 C172,127.697856 164.2987,120 154.8,120 Z" id="Path" fill="#E6DFF2"></path>
            <path d="M812.964262,292.914572 L778.464262,292.914572 C768.93795,292.914572 761.214262,300.622268 761.214262,310.128858 L761.214262,774.914572 L830.214262,774.914572 L830.214262,310.128858 C830.214262,300.622268 822.490575,292.914572 812.964262,292.914572 Z" id="Path" fill="#E6DFF2" transform="translate(795.714262, 533.914572) rotate(-90.000000) translate(-795.714262, -533.914572) "></path>
            <path d="M842.25,292.5 L807.75,292.5 C798.223687,292.5 790.5,300.207696 790.5,309.714286 L790.5,774.5 L859.5,774.5 L859.5,309.714286 C859.5,300.207696 851.776312,292.5 842.25,292.5 Z" id="Path" fill="#E6DFF2" transform="translate(825.000000, 533.500000) rotate(-270.000000) translate(-825.000000, -533.500000) "></path>
            <path d="M464.833333,51 L396.166667,51 C386.686375,51 379,58.7013 379,68.2 L379,567 L482,567 L482,68.2 C482,58.7013 474.313625,51 464.833333,51 Z" id="Path" fill="#F1EDE9"></path>
            <path d="M1951.05772,636 L30.9422798,636 C13.8544058,636 0,628.276313 0,618.75 L0,584.25 C0,574.723687 13.8544058,567 30.9422798,567 L1951.05772,567 C1968.14559,567 1982,574.723687 1982,584.25 L1982,618.75 C1982,628.276313 1968.14559,636 1951.05772,636 Z" id="Path" fill="#E6BE8A"></path>
            <rect id="Rectangle" fill="#5D647F" x="241" y="69" width="69" height="34"></rect>
            <rect id="Rectangle" fill="#5D7F6C" transform="translate(105.000000, 128.500000) rotate(90.000000) translate(-105.000000, -128.500000) " x="79.5" y="126.5" width="51" height="4"></rect>
            <rect id="Rectangle" fill="#5D647F" transform="translate(400.500000, 78.500000) rotate(90.000000) translate(-400.500000, -78.500000) " x="366" y="70" width="69" height="17"></rect>
            <rect id="Rectangle" fill="#868491" x="310" y="69" width="69" height="34"></rect>
            <rect id="Rectangle" fill="#5D647F" x="241" y="482" width="69" height="34"></rect>
            <rect id="Rectangle" fill="#868491" x="310" y="482" width="69" height="34"></rect>
            <rect id="Rectangle" fill="#000000" transform="translate(623.714262, 516.414572) rotate(-90.000000) translate(-623.714262, -516.414572) " x="606.714262" y="499.414572" width="34" height="34"></rect>
            <rect id="Rectangle" fill="#000000" transform="translate(950.714262, 516.414572) rotate(-90.000000) translate(-950.714262, -516.414572) " x="933.714262" y="499.414572" width="34" height="34"></rect>
            <path d="M378,68.2 L378,567 L430,567 L430,51 L395.333333,51 C385.761,51 378,58.7013 378,68.2 Z" id="Path" fill="#C9C3BC"></path>
            <path d="M172,568 L206,568 L206,69 L189,69 C179.61175,69 172,76.7043879 172,86.2068966 L172,568 Z" id="Path" fill="#F1EDE9"></path>
            <path d="M86,567 L129,567 L129,120 L101.0457,120 C92.73595,120 86,126.732938 86,135.038971 L86,567 Z" id="Path" fill="#E6DFF2"></path>
            <path d="M482,567 L516,567 L516,17 L499,17 C489.61175,17 482,24.6957031 482,34.1875 L482,567 Z" id="Path" fill="#4E4444"></path>
            <rect id="Rectangle" fill="#000000" transform="translate(623.714262, 550.414572) rotate(-90.000000) translate(-623.714262, -550.414572) " x="606.714262" y="533.414572" width="34" height="34"></rect>
            <rect id="Rectangle" fill="#000000" transform="translate(950.714262, 550.414572) rotate(-90.000000) translate(-950.714262, -550.414572) " x="933.714262" y="533.414572" width="34" height="34"></rect>
            <path d="M0,602 L0,619 C0,628.38825 13.8544058,636 30.9422798,636 L1951.05772,636 C1968.14559,636 1982,628.38825 1982,619 L1982,602 L0,602 Z" id="Path" fill="#C9A07C"></path>
        </g>
    </g>
</svg>