<?xml version="1.0" encoding="UTF-8"?>
<svg width="97px" height="81px" viewBox="0 0 97 81" version="1.1" xmlns="http://www.w3.org/2000/svg" xmlns:xlink="http://www.w3.org/1999/xlink">
    <!-- Generator: Sketch 59.1 (86144) - https://sketch.com -->
    <title>Expanded</title>
    <desc>Created with Sketch.</desc>
    <g id="Final-UI" stroke="none" stroke-width="1" fill="none" fill-rule="evenodd">
        <g id="BOTTOM-NAV-BAR" fill="#FFFFFF" fill-rule="nonzero">
            <g id="Book-Pictograph2--liuzhongjun">
                <g id="Expanded">
                    <g id="g4374">
                        <g id="g4376" transform="translate(0.000000, 5.242021)">
                            <path d="M48.5,75.221258 C48.1759318,75.221258 47.8518636,75.1653431 47.5520455,75.051766 L1.25659091,57.5783617 C0.489409091,57.2883032 0,56.6749867 0,56.0005133 L0,1.83296011 C0,1.23362234 0.388,0.676220745 1.02731818,0.354710106 C1.66443182,0.0349468085 2.46909091,-0.00174734043 3.1525,0.255111702 L48.5,17.3703112 L93.8475,0.253364362 C94.5309091,-0.00174734043 95.3311591,0.0331994681 95.9704773,0.354710106 C96.612,0.676220745 97,1.23362234 97,1.83296011 L97,56.0005133 C97,56.6749867 96.5105909,57.2883032 95.7434091,57.5783617 L49.4479545,75.051766 C49.1481364,75.1653431 48.8240682,75.221258 48.5,75.221258 Z M4.40909091,54.8961941 L48.5,71.5378644 L92.5909091,54.8961941 L92.5909091,4.60074734 L49.4479545,20.8842128 C48.8505227,21.1096197 48.1516818,21.1096197 47.55425,20.8842128 L4.40909091,4.60074734 L4.40909091,54.8961941 Z" id="path4378"></path>
                        </g>
                        <g id="g4380" transform="translate(8.305497, 0.000000)">
                            <path d="M40.1945032,17.8298617 L1.76266226,3.32518883 C0.66259408,2.90932181 0.197434989,1.86615957 0.719912262,0.995984043 C1.24459408,0.12406117 2.55850317,-0.241132979 3.65857135,0.167744681 L40.1945032,13.9595027 L76.730435,0.167744681 C77.8327077,-0.241132979 79.1444123,0.12406117 79.6690941,0.995984043 C80.1915714,1.86615957 79.7264123,2.90932181 78.6263441,3.32518883 L40.1945032,17.8298617 Z" id="path4382"></path>
                        </g>
                        <g id="g4384" transform="translate(46.295455, 24.462766)">
                            <rect id="rect4386" x="0" y="0.0856196809" width="4.40909091" height="54.1675532"></rect>
                        </g>
                    </g>
                </g>
            </g>
        </g>
    </g>
</svg>